<?xml version="1.0" encoding="UTF-8" standalone="no"?>
<!-- Created with Inkscape (http://www.inkscape.org/) -->

<svg
   width="108.99833mm"
   height="73.659363mm"
   viewBox="0 0 108.99833 73.659363"
   version="1.1"
   id="svg1"
   xml:space="preserve"
   xmlns:inkscape="http://www.inkscape.org/namespaces/inkscape"
   xmlns:sodipodi="http://sodipodi.sourceforge.net/DTD/sodipodi-0.dtd"
   xmlns="http://www.w3.org/2000/svg"
   xmlns:svg="http://www.w3.org/2000/svg"><sodipodi:namedview
     id="namedview1"
     pagecolor="#ffffff"
     bordercolor="#000000"
     borderopacity="0.25"
     inkscape:showpageshadow="2"
     inkscape:pageopacity="0.0"
     inkscape:pagecheckerboard="0"
     inkscape:deskcolor="#d1d1d1"
     inkscape:document-units="mm" /><defs
     id="defs1" /><g
     inkscape:label="Layer 1"
     inkscape:groupmode="layer"
     id="layer1"
     transform="translate(-64.3295,-52.3716)"><path
       style="fill:#ff0000"
       d="m 106.94019,126.00622 c -0.0363,-0.0327 -2.08648,-0.0982 -4.55593,-0.14543 -2.469449,-0.0472 -4.727609,-0.10874 -5.018129,-0.13664 -0.29053,-0.0279 -1.50875,-0.0839 -2.70715,-0.12441 -6.95888,-0.23528 -14.12506,-0.8453 -17.36201,-1.47795 -3.47314,-0.67881 -6.43163,-2.41334 -8.47365,-4.968 -0.7393,-0.92491 -1.65804,-2.58536 -2.01207,-3.63643 -3.10154,-9.20822 -3.35571,-39.716026 -0.42494,-51.004076 0.47623,-1.83423 0.77929,-2.60212 1.52093,-3.85374 2.01601,-3.40231 5.26876,-5.62482 9.41935,-6.43596 3.16467,-0.61847 10.47747,-1.23987 17.26636,-1.4672 1.16209,-0.0389 2.49916,-0.0967 2.97126,-0.12831 5.082279,-0.3408 38.475209,-0.34246 42.456039,-0.002 0.36315,0.031 1.70022,0.0881 2.97126,0.12675 2.13141,0.0648 2.90979,0.10237 5.28225,0.25478 0.4721,0.0303 1.4229,0.0896 2.11289,0.13172 5.87939,0.35889 10.11812,0.9505 12.32979,1.7209 3.64764,1.27058 6.91583,4.54127 8.12148,8.12767 2.73118,8.12433 3.34724,32.53573 1.18863,47.099916 -0.82287,5.55193 -1.94757,8.10241 -4.6877,10.63028 -2.68768,2.47949 -5.31867,3.3942 -11.63763,4.04602 -2.19074,0.22598 -3.36527,0.31957 -7.29541,0.58133 -2.18977,0.14584 -6.30938,0.31771 -9.24393,0.38566 -1.70682,0.0395 -3.3113,0.10146 -3.56551,0.13764 -0.58631,0.0835 -28.5672,0.21781 -28.65618,0.13759 z m 7.80445,-24.98509 c 3.8059,-2.084966 9.62366,-5.269156 12.92836,-7.075976 6.74238,-3.68633 8.45159,-4.63717 8.45159,-4.70163 0,-0.0468 -1.64957,-0.95679 -13.13958,-7.24841 -3.92207,-2.14762 -8.88938,-4.86984 -11.03848,-6.04937 -2.14909,-1.17954 -4.00613,-2.18107 -4.12675,-2.22563 -0.20364,-0.0752 -0.21931,1.03264 -0.21931,15.50544 0,8.57254 0.0505,15.586446 0.11218,15.586446 0.0617,0 3.2261,-1.70589 7.03199,-3.79087 z"
       id="path1"
       inkscape:export-filename="image.svg"
       inkscape:export-xdpi="96"
       inkscape:export-ydpi="96" /></g></svg>
